<svg width="144" height="47" viewBox="0 0 144 47" fill="none" xmlns="http://www.w3.org/2000/svg">
<path d="M0 9.51899H11.5236V46.4051H16.9653V9.51899H28.4889V4.75949H0V9.51899Z" fill="url(#paint0_linear_1_12)"/>
<path d="M33.9156 19.038L28.4889 9.51899L28.794 46.4051H33.9156V19.038ZM42.8144 24.2734L45.6313 20.3468C44.863 19.5933 44.0094 19.0975 43.0705 18.8595C42.1742 18.5819 41.1925 18.443 40.1255 18.443C38.7598 18.443 37.4154 18.9388 36.0923 19.9304C34.7692 20.9219 33.6809 22.2705 32.8273 23.976C32.0163 25.6418 31.6109 27.5654 31.6109 29.7468H33.9156C33.9156 28.438 34.0436 27.2679 34.2997 26.2367C34.5985 25.2055 35.1106 24.3924 35.8362 23.7975C36.5618 23.2025 37.5647 22.9051 38.8451 22.9051C39.6987 22.9051 40.403 23.0241 40.9578 23.262C41.5126 23.4603 42.1315 23.7975 42.8144 24.2734Z" fill="url(#paint1_linear_1_12)"/>
<path d="M53.0431 37.957C53.0431 36.9654 53.2992 36.1127 53.8113 35.3987C54.3235 34.6848 55.0917 34.1295 56.116 33.7329C57.183 33.3363 58.5488 33.138 60.2133 33.138C62.0059 33.138 63.6917 33.3561 65.2709 33.7924C66.8501 34.189 68.3865 34.8633 69.8803 35.8152V33.019C69.5816 32.662 69.0054 32.2059 68.1518 31.6506C67.2982 31.0557 66.1458 30.5401 64.6947 30.1038C63.2863 29.6279 61.5151 29.3899 59.3811 29.3899C55.7533 29.3899 52.915 30.203 50.8664 31.8291C48.8604 33.4156 47.8575 35.5376 47.8575 38.1949C47.8575 40.0591 48.3269 41.6456 49.2659 42.9544C50.2049 44.2633 51.4426 45.2747 52.9791 45.9886C54.5582 46.6629 56.2441 47 58.0366 47C59.6585 47 61.2803 46.7224 62.9022 46.1671C64.5667 45.6118 65.9538 44.7591 67.0635 43.6089C68.2158 42.4587 68.792 41.011 68.792 39.2658L67.7677 35.6962C67.7677 37.1241 67.3836 38.3933 66.6153 39.5038C65.8898 40.5747 64.8868 41.4076 63.6064 42.0025C62.3687 42.5975 60.9602 42.8949 59.3811 42.8949C58.1433 42.8949 57.0337 42.7165 56.052 42.3595C55.1131 41.9629 54.3662 41.3878 53.8113 40.6342C53.2992 39.8806 53.0431 38.9882 53.0431 37.957ZM52.2748 25.3443C52.7443 25.027 53.3845 24.6502 54.1954 24.2139C55.0064 23.7776 55.988 23.4008 57.1404 23.0835C58.3354 22.7662 59.6585 22.6076 61.1096 22.6076C62.0059 22.6076 62.8595 22.6869 63.6704 22.8456C64.4813 23.0042 65.1855 23.262 65.7831 23.619C66.4233 23.976 66.9141 24.4717 67.2555 25.1063C67.597 25.7013 67.7677 26.4747 67.7677 27.4266V46.4051H72.8893V26.7722C72.8893 24.9873 72.3985 23.4802 71.4168 22.2506C70.4779 21.0211 69.1334 20.089 67.3836 19.4544C65.6764 18.7802 63.6704 18.443 61.3657 18.443C58.6342 18.443 56.2868 18.8198 54.3235 19.5734C52.4029 20.327 44.1801 18.1059 43.0705 18.8595L52.2748 25.3443Z" fill="url(#paint2_linear_1_12)"/>
<path d="M103.647 0V46.4051H108.769V0H103.647ZM78.9997 32.7215C78.9997 35.6565 79.6612 38.1949 80.9843 40.3367C82.3074 42.4785 84.0786 44.1245 86.298 45.2747C88.5173 46.4249 90.9501 47 93.5963 47C96.0717 47 98.227 46.4249 100.062 45.2747C101.898 44.1245 103.327 42.4785 104.352 40.3367C105.419 38.1949 105.952 35.6565 105.952 32.7215C105.952 29.7468 105.419 27.2084 104.352 25.1063C103.327 22.9646 101.898 21.3186 100.062 20.1684C98.227 19.0181 96.0717 18.443 93.5963 18.443C90.9501 18.443 88.5173 19.0181 86.298 20.1684C84.0786 21.3186 82.3074 22.9646 80.9843 25.1063C79.6612 27.2084 78.9997 29.7468 78.9997 32.7215ZM84.1853 32.7215C84.1853 30.6194 84.6334 28.8346 85.5297 27.3671C86.4687 25.8996 87.7064 24.789 89.2429 24.0354C90.7794 23.2819 92.4439 22.9051 94.2365 22.9051C95.7303 22.9051 97.2027 23.2819 98.6538 24.0354C100.105 24.789 101.3 25.8996 102.239 27.3671C103.178 28.8346 103.647 30.6194 103.647 32.7215C103.647 34.8236 103.178 36.6084 102.239 38.076C101.3 39.5435 100.105 40.654 98.6538 41.4076C97.2027 42.1612 95.7303 42.538 94.2365 42.538C92.4439 42.538 90.7794 42.1612 89.2429 41.4076C87.7064 40.654 86.4687 39.5435 85.5297 38.076C84.6334 36.6084 84.1853 34.8236 84.1853 32.7215Z" fill="url(#paint3_linear_1_12)"/>
<path d="M129.467 47C132.626 47 135.357 46.4249 137.662 45.2747C140.009 44.0848 141.951 42.3397 143.488 40.0392L139.327 37.6C138.26 39.2658 136.958 40.5152 135.421 41.3481C133.885 42.1413 132.114 42.538 130.108 42.538C128.102 42.538 126.395 42.1413 124.986 41.3481C123.578 40.5549 122.511 39.4046 121.785 37.8975C121.06 36.3903 120.697 34.5658 120.697 32.4241C120.739 30.3219 121.124 28.557 121.849 27.1291C122.617 25.6616 123.684 24.5511 125.05 23.7975C126.459 23.0042 128.144 22.6076 130.108 22.6076C131.772 22.6076 133.223 22.9447 134.461 23.619C135.699 24.2932 136.659 25.2253 137.342 26.4152C138.067 27.6051 138.43 29.0131 138.43 30.6392C138.43 30.9169 138.366 31.2738 138.238 31.7101C138.11 32.1068 137.982 32.4042 137.854 32.6025L139.903 29.8658H118.776V33.9114H143.936C143.936 33.8321 143.936 33.6536 143.936 33.376C143.979 33.0587 144 32.7612 144 32.4835C144 29.5882 143.445 27.0895 142.335 24.9873C141.226 22.8852 139.625 21.2789 137.534 20.1684C135.485 19.0181 133.01 18.443 130.108 18.443C127.205 18.443 124.645 19.038 122.425 20.2278C120.249 21.4177 118.541 23.0835 117.304 25.2253C116.109 27.3671 105.754 26.8911 105.754 29.7468C105.754 32.5629 116.087 38.0165 117.24 40.1582C118.435 42.3 120.078 43.9857 122.169 45.2152C124.303 46.4051 126.736 47 129.467 47Z" fill="url(#paint4_linear_1_12)"/>
<defs>
<linearGradient id="paint0_linear_1_12" x1="-0.6402" y1="4.75949" x2="121.988" y2="52.1289" gradientUnits="userSpaceOnUse">
<stop stop-color="#2BED90"/>
<stop offset="1" stop-color="#2BA7ED" stop-opacity="0.41"/>
</linearGradient>
<linearGradient id="paint1_linear_1_12" x1="-0.6402" y1="4.75949" x2="121.988" y2="52.1289" gradientUnits="userSpaceOnUse">
<stop stop-color="#2BED90"/>
<stop offset="1" stop-color="#2BA7ED" stop-opacity="0.41"/>
</linearGradient>
<linearGradient id="paint2_linear_1_12" x1="-0.6402" y1="4.75949" x2="121.988" y2="52.1289" gradientUnits="userSpaceOnUse">
<stop stop-color="#2BED90"/>
<stop offset="1" stop-color="#2BA7ED" stop-opacity="0.41"/>
</linearGradient>
<linearGradient id="paint3_linear_1_12" x1="-0.6402" y1="4.75949" x2="121.988" y2="52.1289" gradientUnits="userSpaceOnUse">
<stop stop-color="#2BED90"/>
<stop offset="1" stop-color="#2BA7ED" stop-opacity="0.41"/>
</linearGradient>
<linearGradient id="paint4_linear_1_12" x1="-0.6402" y1="4.75949" x2="121.988" y2="52.1289" gradientUnits="userSpaceOnUse">
<stop stop-color="#2BED90"/>
<stop offset="1" stop-color="#2BA7ED" stop-opacity="0.41"/>
</linearGradient>
</defs>
</svg>
